<svg width="108" height="88" viewBox="0 0 108 88" fill="none" xmlns="http://www.w3.org/2000/svg">
<g clip-path="url(#clip0_25_13)">
<path d="M59.8 0H1.71C0.79 0 0 0.86 0 1.88V72.73C0 73.74 0.79 74.61 1.71 74.61H44.62V85.4C44.62 86.7 46.12 87.9 47.2 87.02C48.41 86.04 49.62 85.05 50.83 84.06C51.72 83.34 52.61 82.61 53.5 81.88C53.73 81.7 54.06 81.49 54.34 81.29C54.51 81.41 54.68 81.53 54.8 81.65C55.58 82.43 56.53 83.07 57.37 83.76C58.69 84.84 60 85.92 61.32 87C62.05 87.6 62.78 87.38 63.25 86.83C63.63 86.53 63.9 86.06 63.9 85.38V74.59H106.19C106.69 74.59 107.07 74.39 107.35 74.09C107.37 74.07 107.39 74.05 107.41 74.03C107.41 74.02 107.43 74.01 107.44 73.99C107.72 73.69 107.9 73.27 107.9 72.71V1.88C107.9 0.87 107.12 0 106.19 0H59.8ZM44.62 70.85H3.42V3.75H44.61V70.85H44.62ZM60.48 81.65C58.7 80.19 56.93 78.74 55.15 77.28C54.71 76.92 53.86 76.92 53.42 77.28C51.63 78.74 49.83 80.2 48.04 81.66V3.75H60.47V81.65H60.48ZM63.9 3.75H104.47V70.85H63.9V3.75Z" fill="#FFDC00"/>
<path d="M11.21 21.36H35.41C36.88 21.36 36.88 18.86 35.41 18.86H11.21C9.73998 18.86 9.73998 21.36 11.21 21.36Z" fill="#FFDC00"/>
<path d="M11.21 31.87H35.41C36.88 31.87 36.88 29.37 35.41 29.37H11.21C9.73998 29.37 9.73998 31.87 11.21 31.87Z" fill="#FFDC00"/>
<path d="M11.21 42.38H35.41C36.88 42.38 36.88 39.88 35.41 39.88H11.21C9.73998 39.88 9.73998 42.38 11.21 42.38Z" fill="#FFDC00"/>
<path d="M11.21 52.9H35.41C36.88 52.9 36.88 50.4 35.41 50.4H11.21C9.73998 50.4 9.73998 52.9 11.21 52.9Z" fill="#FFDC00"/>
<path d="M96.82 18.86H72.62C71.15 18.86 71.15 21.36 72.62 21.36H96.82C98.29 21.36 98.29 18.86 96.82 18.86Z" fill="#FFDC00"/>
<path d="M96.82 29.37H72.62C71.15 29.37 71.15 31.87 72.62 31.87H96.82C98.29 31.87 98.29 29.37 96.82 29.37Z" fill="#FFDC00"/>
<path d="M96.82 39.88H72.62C71.15 39.88 71.15 42.38 72.62 42.38H96.82C98.29 42.38 98.29 39.88 96.82 39.88Z" fill="#FFDC00"/>
<path d="M96.82 50.4H72.62C71.15 50.4 71.15 52.9 72.62 52.9H96.82C98.29 52.9 98.29 50.4 96.82 50.4Z" fill="#FFDC00"/>
</g>
<defs>
<clipPath id="clip0_25_13">
<rect width="107.9" height="87.37" fill="white"/>
</clipPath>
</defs>
</svg>
