<?xml version="1.0" encoding="UTF-8"?>
<svg id="Layer_1" data-name="Layer 1" xmlns="http://www.w3.org/2000/svg" viewBox="0 0 375 200">
  <defs>
    <style>
      .cls-1 {
        fill: #000;
      }

      .cls-1, .cls-2 {
        stroke-width: 0px;
      }

      .cls-2 {
        fill: #fff;
      }
    </style>
  </defs>
  <rect class="cls-1" x="-.25" width="375.5" height="200"/>
  <path class="cls-2" d="M220.01,93.19l-63.23,30.72c-.4-.59-.99-1.19-1.59-1.78l-.59-.59,63.23-30.52c.59.79,1.39,1.59,2.18,2.18h0Z"/>
  <path class="cls-2" d="M218.42,80.7c-.2.2-.99,1.39-1.59,2.58l-60.85-22.99c.79-.79,1.19-1.59,1.59-2.58l60.85,22.99Z"/>
  <path class="cls-2" d="M155.19,128.47c0,9.71-21.6,9.71-21.6,0,0-1.59.79-3.17,1.98-4.36.4.59.79,1.19,1.19,1.59,1.39,1.98,2.77,3.57,3.37,4.56l.59.79c1.78,1.98,4.76,2.18,6.74.2l.59-.59c.59-.79,1.98-2.58,3.77-4.96.4-.59.79-1.19,1.19-1.59,1.59,1.39,2.18,2.78,2.18,4.36h0Z"/>
  <path class="cls-2" d="M241.01,86.25c0,6.94-12.09,9.71-18.63,5.15-1.98-1.39-2.97-3.17-2.97-5.15,0-1.78.99-3.37,1.98-4.36.79.99,4.16,5.55,5.35,7.14,1.78,2.18,5.15,2.18,6.94,0,.59-.79,2.38-2.97,4.16-5.55.4-.59.79-.99,1.19-1.59,1.19,1.19,1.98,2.78,1.98,4.36h0Z"/>
  <path class="cls-2" d="M155.19,54.54c0,1.39-.59,2.77-1.59,3.96-5.55,6.14-20.02,3.77-20.02-3.96,0-1.78.79-3.17,2.18-4.56.4.59.79,1.19,1.19,1.78,1.78,2.38,3.57,4.76,4.36,5.55,1.78,2.18,5.15,2.18,6.94,0,.59-.79,2.38-2.97,3.96-5.35.4-.59.79-.99.99-1.59,1.39,1.19,1.98,2.58,1.98,4.16h0Z"/>
  <path class="cls-2" d="M144.49,81.3c-9.91,0-17.84,7.93-17.84,17.84,0,6.34,6.94,17.05,12.68,24.97,2.18,3.17,3.96,5.35,3.96,5.35.59.79,1.78.99,2.58-.4.59-.79,1.98-2.38,3.77-4.96,5.75-7.93,12.68-18.63,12.68-24.97,0-9.91-7.93-17.84-17.84-17.84h0ZM144.49,91.01c4.36,0,8.13,3.57,8.13,8.13s-3.57,8.13-8.13,8.13-8.13-3.57-8.13-8.13,3.57-8.13,8.13-8.13h0Z"/>
  <path class="cls-2" d="M230.12,38.88c-9.91,0-17.84,8.13-17.84,17.84,0,6.34,6.94,17.05,12.68,24.97,2.38,3.17,3.96,5.35,4.16,5.35.59.79,1.78.79,2.38,0,0,0,1.78-2.18,4.16-5.35,5.75-7.93,12.68-18.63,12.68-24.97-.2-9.71-8.32-17.84-18.23-17.84h0ZM230.12,48.4c4.56,0,8.32,3.77,8.32,8.32s-3.77,8.32-8.32,8.32-8.32-3.77-8.32-8.32,3.77-8.32,8.32-8.32h0Z"/>
  <path class="cls-2" d="M144.89,7.37c-9.91,0-17.84,8.13-17.84,17.84,0,4.96,4.16,13.28,12.49,24.78,2.38,3.17,4.16,5.35,4.16,5.55.59.79,1.78.79,2.38,0,0,0,1.78-2.18,3.96-5.35,5.75-7.93,12.68-18.63,12.68-24.97,0-9.91-7.93-17.84-17.84-17.84h0ZM144.89,16.29c4.96,0,8.92,3.96,8.92,8.92s-3.96,8.92-8.92,8.92-8.92-3.96-8.92-8.92c0-4.96,3.96-8.92,8.92-8.92Z"/>
</svg>