<?xml version="1.0" encoding="UTF-8"?>
<svg id="Layer_1" data-name="Layer 1" xmlns="http://www.w3.org/2000/svg" viewBox="0 0 375 200">
  <defs>
    <style>
      .cls-1 {
        fill: #000;
      }

      .cls-1, .cls-2 {
        stroke-width: 0px;
      }

      .cls-2 {
        fill: #fff;
      }
    </style>
  </defs>
  <rect class="cls-1" x="-.25" y="-.14" width="375.5" height="200"/>
  <path class="cls-2" d="M119.38,38.11c-1.32-3.24-.76-6.94,1.46-9.63,2.22-2.7,5.74-3.97,9.17-3.3.81-5.47,5.52-9.51,11.05-9.5,5.54.02,10.21,4.11,10.97,9.59,2.87-2.21,6.75-2.6,10-1.01,3.25,1.6,5.31,4.91,5.31,8.53,0,.31-.01.62-.04.92,4.27-.79,8.54,1.41,10.38,5.35-3.57.52-7,1.69-10.15,3.46-1.81-3.34-4.14-6.4-6.01-7.3h0c-1.17-.49-2.44-.71-3.72-.63-3.74.05-7.44.69-10.99,1.88-5.61,1.97-7.99,4.93-8.92,7.58-3.35-4.34-10.41-5.98-16.82-5.98-.63-.01-1.19,0-1.7.03h0ZM142.79,56.74c6.14,1.22,8.12,4.83,8.76,7.36h1.23c1.08-7.62,5.09-14.51,11.17-19.22-1.02-2.21-2.47-4.17-4.28-5.8-1.55-.75-17.29.36-17.98,7.58-.33,3.51,1.27,7-.53,9.63.53.2,1.08.34,1.63.45h0ZM186,35.71l.47,3.4c4.16.67,8.12,2.2,11.63,4.5,1.28-2.58,3.4-4.64,6.02-5.84-5.92-2.03-11.46-3.45-18.12-2.07h0ZM173.92,44.35h0c-4.33,1.45-8.18,4.06-11.14,7.54-2.96,3.48-4.91,7.69-5.66,12.2h21.17l-2.43-7.21c-.38-1.12.23-2.33,1.35-2.71,1.12-.38,2.33.23,2.71,1.35l2.87,8.54,8.04-8.76h0c.8-.87,2.16-.93,3.03-.13.87.8.93,2.16.13,3.03l-5.41,5.9h5.5l11.67-3.92c-2.13-6.32-6.67-11.54-12.64-14.51-5.97-2.96-12.88-3.43-19.2-1.31h0ZM207.5,64.09h11.34c1.46-2.28,4.67-3.29,6.95-5.49,5.43-5.24-3.52-18.62-5.46-19.55-1.57-.76-17.15.32-18.62,7.33h0c3.73,3.38,6.52,7.66,8.12,12.43.71,2.1-.31,4.4-2.34,5.29h0ZM127.03,64.09l-5.74-9.7c-.6-1.02-.27-2.33.75-2.94,1.02-.6,2.33-.26,2.94.75l7.03,11.89h14.98c-1.09-1.78-2.96-2.95-5.04-3.15-8.67-1.72-5.54-7.03-6.45-12.04-1.3-7.14-16.78-7.08-18.55-6.04-1.48.87-9.27,14.59-3.64,19.16h0c1.07.81,2.21,1.5,3.42,2.07h10.29ZM229.01,43.91c1.23,2.38,2.11,4.94,2.58,7.58.81,3.51-.12,7.19-2.51,9.88,3.48.16,6.97.02,10.43-.4,7.64-.9,12.97-3.37,19.86-5.17l2.49-18.06c-8.16,1.8-13.82,4.75-22.35,5.76h0c-3.48.43-6.99.57-10.5.4h0ZM220.79,82.12v-13.74h-105.97v13.74c0,11.89,6.17,20.91,15.52,27.07h74.94c9.35-6.17,15.52-15.17,15.52-27.07ZM183.69,18.97l1.72,12.49c1.94-.38,3.9-.58,5.88-.58,6.28,0,11.69,1.93,17.42,3.98l1.85.66h0c2.57-.6,5.19-.92,7.83-.95,1.3-.08,2.59.13,3.79.63,1.69,1.06,3.12,2.51,4.16,4.22,1.85.19,3.7.29,5.55.29,2.37,0,4.74-.15,7.1-.43,4.25-.59,8.44-1.61,12.49-3.04,2.92-.93,5.94-1.89,9.45-2.66h0c.31-.07.62-.1.92-.1.2,0,.4.02.59.05l2.01-14.55h-80.76ZM138.17,120.4c0,2.25,1.83,4.08,4.09,4.08h51.09c2.25,0,4.08-1.83,4.08-4.08v-6.94h-59.26v6.94ZM240.01,65.24h0c-2.69.32-5.4.49-8.12.49-2.68,0-5.36-.17-8.02-.52l-.12.07c.84.81,1.32,1.92,1.31,3.1v13.74c0,13.96-7.51,25.49-21.27,32.93h47.39s7.53-54.62,7.53-54.62c-1.59.46-3.14.95-4.64,1.42-4.57,1.59-9.28,2.73-14.07,3.38h0Z"/>
</svg>